v -0.456604 -0.845000 -0.055000
v -0.106604 -0.845000 -0.055000
v -0.103449 -0.715000 -0.054735
v -0.456604 -0.715000 -0.055000
v -0.456604 -0.715000 0.495000
v -0.456604 -0.845000 0.495000
v -0.106604 -0.845000 0.495000
v -0.106604 -0.715000 0.495000
v -0.281604 -0.715000 0.495000
v -0.106604 -0.715000 0.220000
v -0.281604 -0.715000 0.220000
v -0.456604 -0.715000 0.220000
v -0.278449 -0.715000 -0.054735
v -0.278449 -0.635485 -0.054735
v -0.456604 -0.635485 -0.055000
v -0.103449 -0.635485 -0.054735
v -0.106604 -0.635485 0.220000
v -0.281604 -0.635485 0.220000
v -0.456604 -0.635485 0.220000
v -0.500000 -0.650000 -0.425000
v 0.500000 -0.650000 -0.425000
v 0.500000 0.650000 -0.425000
v -0.500000 0.650000 -0.425000
v -0.500000 -0.650000 0.425000
v 0.500000 -0.650000 0.425000
v 0.500000 0.650000 0.425000
v -0.500000 0.650000 0.425000
v -0.275000 -0.475000 0.430000
v 0.275000 -0.475000 0.430000
v 0.275000 0.375000 0.430000
v -0.275000 0.375000 0.430000
v -0.275000 0.375000 0.510000
v -0.275000 -0.475000 0.510000
v 0.275000 -0.475000 0.510000
v 0.275000 0.375000 0.510000
v -0.190000 0.644118 -0.090000
v 0.190000 0.644118 -0.090000
v 0.190000 0.924118 -0.090000
v -0.190000 0.924118 -0.090000
v -0.190000 0.924118 0.290000
v -0.190000 0.644118 0.290000
v 0.190000 0.644118 0.290000
v 0.190000 0.924118 0.290000
v -0.360000 0.900000 -0.240000
v 0.360000 0.900000 -0.240000
v 0.360000 1.620000 -0.240000
v -0.360000 1.620000 -0.240000
v -0.360000 1.620000 0.440000
v -0.360000 0.900000 0.440000
v 0.360000 0.900000 0.440000
v 0.360000 1.620000 0.440000
v -0.110000 1.012390 0.418224
v 0.110000 1.012390 0.418224
v 0.110000 1.111420 0.404307
v -0.110000 1.111420 0.404307
v -0.110000 1.147610 0.661776
v -0.110000 1.048580 0.675694
v 0.110000 1.048580 0.675694
v 0.110000 1.147610 0.661776
v -0.090000 0.963744 0.404087
v 0.090000 0.963744 0.404087
v 0.090000 1.042000 0.420720
v -0.090000 1.042000 0.420720
v -0.090000 0.996256 0.635913
v -0.090000 0.918004 0.619280
v 0.090000 0.918004 0.619280
v 0.090000 0.996256 0.635913
v -0.265000 1.315000 0.445000
v -0.135000 1.315000 0.445000
v -0.135000 1.445000 0.445000
v -0.265000 1.445000 0.445000
v -0.265000 1.445000 0.515000
v -0.265000 1.315000 0.515000
v -0.135000 1.315000 0.515000
v -0.135000 1.445000 0.515000
v 0.135000 1.315000 0.445000
v 0.265000 1.315000 0.445000
v 0.265000 1.445000 0.445000
v 0.135000 1.445000 0.445000
v 0.135000 1.445000 0.515000
v 0.135000 1.315000 0.515000
v 0.265000 1.315000 0.515000
v 0.265000 1.445000 0.515000
v -0.820474 -0.129256 -0.140000
v -0.652192 -0.193140 -0.140000
v -0.421501 0.414546 -0.140000
v -0.589784 0.478430 -0.140000
v -0.589784 0.478430 0.140000
v -0.820474 -0.129256 0.140000
v -0.652192 -0.193140 0.140000
v -0.421501 0.414546 0.140000
v 0.739871 -0.152868 -0.140000
v 0.894209 -0.060239 -0.140000
v 0.559719 0.497091 -0.140000
v 0.405381 0.404462 -0.140000
v 0.405381 0.404462 0.140000
v 0.739871 -0.152868 0.140000
v 0.894209 -0.060239 0.140000
v 0.559719 0.497091 0.140000
v 0.105000 -0.845000 -0.055000
v 0.455000 -0.845000 -0.055000
v 0.458155 -0.715000 -0.054735
v 0.105000 -0.715000 -0.055000
v 0.105000 -0.715000 0.495000
v 0.105000 -0.845000 0.495000
v 0.455000 -0.845000 0.495000
v 0.455000 -0.715000 0.495000
v 0.280000 -0.715000 0.495000
v 0.455000 -0.715000 0.220000
v 0.280000 -0.715000 0.220000
v 0.105000 -0.715000 0.220000
v 0.283155 -0.715000 -0.054735
v 0.283155 -0.635485 -0.054735
v 0.105000 -0.635485 -0.055000
v 0.458155 -0.635485 -0.054735
v 0.455000 -0.635485 0.220000
v 0.280000 -0.635485 0.220000
v 0.105000 -0.635485 0.220000
vn -0.0000 -1.0000 -0.0000
vn -0.0000 0.0020 -1.0000
vn 0.0008 0.0010 -1.0000
vn -1.0000 -0.0000 -0.0000
vn -0.0000 -0.0000 1.0000
vn 1.0000 -0.0000 -0.0000
vn 0.9999 -0.0121 0.0057
vn 0.0015 -0.0000 -1.0000
vn -0.0000 -0.0000 -1.0000
vn -0.0000 1.0000 -0.0000
vn 0.9999 -0.0000 0.0115
vn -0.0000 -0.9903 0.1392
vn -0.0000 -0.1392 -0.9903
vn -0.0000 0.1392 0.9903
vn -0.0000 0.9903 -0.1392
vn -0.0000 -0.9781 -0.2079
vn -0.0000 0.2079 -0.9781
vn -0.0000 -0.2079 0.9781
vn -0.0000 0.9781 0.2079
vn -0.3549 -0.9349 -0.0000
vn -0.9349 0.3549 -0.0000
vn 0.9349 -0.3549 -0.0000
vn 0.3549 0.9349 -0.0000
vn 0.5146 -0.8574 -0.0000
vn -0.8574 -0.5146 -0.0000
vn 0.8574 0.5146 -0.0000
vn -0.5146 0.8574 -0.0000
s 0
f 1//1 2//1 7//1
f 1//2 3//2 2//2
f 1//3 4//3 13//3 3//3
f 1//4 5//4 12//4 4//4
f 1//4 6//4 5//4
f 1//1 7//1 6//1
f 6//5 7//5 8//5
f 2//6 8//6 7//6
f 6//5 8//5 9//5 5//5
f 10//5 18//5 11//5
f 2//7 3//7 10//7 8//7
f 4//8 14//8 13//8
f 11//5 19//5 12//5
f 13//9 16//9 3//9
f 11//10 8//10 10//10
f 11//10 9//10 8//10
f 11//10 12//10 9//10
f 12//10 5//10 9//10
f 15//10 19//10 18//10
f 15//10 18//10 14//10
f 14//10 17//10 16//10
f 14//10 18//10 17//10
f 12//4 15//4 4//4
f 3//11 17//11 10//11
f 12//4 19//4 15//4
f 4//8 15//8 14//8
f 13//9 14//9 16//9
f 3//11 16//11 17//11
f 10//5 17//5 18//5
f 11//5 18//5 19//5
f 20//9 22//9 21//9
f 20//9 23//9 22//9
f 24//5 25//5 26//5
f 24//5 26//5 27//5
f 20//4 24//4 27//4
f 20//4 27//4 23//4
f 21//6 22//6 26//6
f 21//6 26//6 25//6
f 20//1 21//1 25//1
f 20//1 25//1 24//1
f 23//10 27//10 26//10
f 23//10 26//10 22//10
f 28//1 29//1 34//1
f 28//9 30//9 29//9
f 28//9 31//9 30//9
f 28//4 32//4 31//4
f 28//4 33//4 32//4
f 28//1 34//1 33//1
f 33//5 34//5 35//5
f 29//6 35//6 34//6
f 33//5 35//5 32//5
f 31//10 32//10 35//10
f 29//6 30//6 35//6
f 31//10 35//10 30//10
f 36//1 37//1 42//1
f 36//9 38//9 37//9
f 36//9 39//9 38//9
f 36//4 40//4 39//4
f 36//4 41//4 40//4
f 36//1 42//1 41//1
f 41//5 42//5 43//5
f 37//6 43//6 42//6
f 41//5 43//5 40//5
f 39//10 40//10 43//10
f 37//6 38//6 43//6
f 39//10 43//10 38//10
f 44//1 45//1 50//1
f 44//9 46//9 45//9
f 44//9 47//9 46//9
f 44//4 48//4 47//4
f 44//4 49//4 48//4
f 44//1 50//1 49//1
f 49//5 50//5 51//5
f 45//6 51//6 50//6
f 49//5 51//5 48//5
f 47//10 48//10 51//10
f 45//6 46//6 51//6
f 47//10 51//10 46//10
f 52//12 53//12 58//12
f 52//13 54//13 53//13
f 52//13 55//13 54//13
f 52//4 56//4 55//4
f 52//4 57//4 56//4
f 52//12 58//12 57//12
f 57//14 58//14 59//14
f 53//6 59//6 58//6
f 57//14 59//14 56//14
f 55//15 56//15 59//15
f 53//6 54//6 59//6
f 55//15 59//15 54//15
f 60//16 61//16 66//16
f 60//17 62//17 61//17
f 60//17 63//17 62//17
f 60//4 64//4 63//4
f 60//4 65//4 64//4
f 60//16 66//16 65//16
f 65//18 66//18 67//18
f 61//6 67//6 66//6
f 65//18 67//18 64//18
f 63//19 64//19 67//19
f 61//6 62//6 67//6
f 63//19 67//19 62//19
f 68//1 69//1 74//1
f 68//9 70//9 69//9
f 68//9 71//9 70//9
f 68//4 72//4 71//4
f 68//4 73//4 72//4
f 68//1 74//1 73//1
f 73//5 74//5 75//5
f 69//6 75//6 74//6
f 73//5 75//5 72//5
f 71//10 72//10 75//10
f 69//6 70//6 75//6
f 71//10 75//10 70//10
f 76//1 77//1 82//1
f 76//9 78//9 77//9
f 76//9 79//9 78//9
f 76//4 80//4 79//4
f 76//4 81//4 80//4
f 76//1 82//1 81//1
f 81//5 82//5 83//5
f 77//6 83//6 82//6
f 81//5 83//5 80//5
f 79//10 80//10 83//10
f 77//6 78//6 83//6
f 79//10 83//10 78//10
f 84//20 85//20 90//20
f 84//9 86//9 85//9
f 84//9 87//9 86//9
f 84//21 88//21 87//21
f 84//21 89//21 88//21
f 84//20 90//20 89//20
f 89//5 90//5 91//5
f 85//22 91//22 90//22
f 89//5 91//5 88//5
f 87//23 88//23 91//23
f 85//22 86//22 91//22
f 87//23 91//23 86//23
f 92//24 93//24 98//24
f 92//9 94//9 93//9
f 92//9 95//9 94//9
f 92//25 96//25 95//25
f 92//25 97//25 96//25
f 92//24 98//24 97//24
f 97//5 98//5 99//5
f 93//26 99//26 98//26
f 97//5 99//5 96//5
f 95//27 96//27 99//27
f 93//26 94//26 99//26
f 95//27 99//27 94//27
f 100//1 101//1 106//1
f 100//2 102//2 101//2
f 100//3 103//3 112//3 102//3
f 100//4 104//4 111//4 103//4
f 100//4 105//4 104//4
f 100//1 106//1 105//1
f 105//5 106//5 107//5
f 101//6 107//6 106//6
f 105//5 107//5 108//5 104//5
f 109//5 117//5 110//5
f 101//7 102//7 109//7 107//7
f 103//8 113//8 112//8
f 110//5 118//5 111//5
f 112//9 115//9 102//9
f 110//10 107//10 109//10
f 110//10 108//10 107//10
f 110//10 111//10 108//10
f 111//10 104//10 108//10
f 114//10 118//10 117//10
f 114//10 117//10 113//10
f 113//10 116//10 115//10
f 113//10 117//10 116//10
f 111//4 114//4 103//4
f 102//11 116//11 109//11
f 111//4 118//4 114//4
f 103//8 114//8 113//8
f 112//9 113//9 115//9
f 102//11 115//11 116//11
f 109//5 116//5 117//5
f 110//5 117//5 118//5
